<svg height="64" width="64" version="1.1">
<path stroke-linejoin="round" d="m0.5,3.6,8.5907,11.187-4.058,1.166,9.602,5.109,9.611,5.121-0.0086-7.881l0.001-7.868-4.058,1.166-8.59-11.1-11.09,3.1z" stroke="#000" stroke-width="1" fill="#FFF"/>
<path stroke-linejoin="round" d="m63.499,3.687-8.592,11.61,4.058,1.166-9.602,5.109-9.611,5.121,0.0086-7.881l-0.001-7.868,4.058,1.166,8.592-11.61,11.09,3.187z" stroke="#000" stroke-width="1" fill="#FFF"/>
<path stroke-linejoin="round" d="m20.819,38.764c-3.733,6.6006,0.62004,16.161,8.3817,17.916,4.1212,1.2503,8.3934-0.0035,11.407-2.6256l14.411,8.7781c1.4507,0.8837,3.304,0.4733,4.1542-0.91993l0.53155-0.87107c0.85-1.393,0.366-3.227-1.085-4.111l-14.291-8.705c0.335-1.239,0.457-2.552,0.309-3.9-0.263-8.018-9.616-14.162-17.118-11.244-2.6312,0.90199-4.8946,2.7141-6.3137,5.0535-0.1374,0.2064-0.26634,0.4166-0.38676,0.62952zm5.5035,2.4872c2.0436-3.6678,7.8743-4.0649,10.669-0.73804,3.0346,3.1233,1.9012,8.7241-2.0763,10.249-3.8382,1.8192-8.9966-1.0873-9.4411-5.3196-0.21308-1.455,0.09142-2.9573,0.84855-4.1911z" stroke="#000" stroke-width="1.4" fill="#FFF"/>
</svg>
